<svg id="Layer_1" data-name="Layer 1" xmlns="http://www.w3.org/2000/svg" xmlns:xlink="http://www.w3.org/1999/xlink" viewBox="0 0 834.08 800"><defs><style>.cls-1{fill:url(#linear-gradient);}.cls-2{fill:url(#linear-gradient-5);}.cls-3{fill:#4d4f53;}.cls-4{fill:#035797;}.cls-5{fill:#0195d3;}.cls-6{fill:#a4d7f4;}.cls-7{fill:#34aadc;}.cls-8{fill:#41b0de;}.cls-9{fill:#67bfe5;}</style><linearGradient id="linear-gradient" x1="11791.92" y1="5468.8" x2="11791.92" y2="4946.28" gradientTransform="translate(-4789.36 12291) rotate(-90)" gradientUnits="userSpaceOnUse"><stop offset="0" stop-color="#0195d3"/><stop offset="1" stop-color="#035797"/></linearGradient><linearGradient id="linear-gradient-5" x1="11792.06" y1="5468.8" x2="11792.06" y2="4946.28" xlink:href="#linear-gradient"/></defs><title>Artboard 31 copy 6</title><polygon class="cls-1" points="361.1 502.36 393.32 502.36 393.32 490.8 361.1 490.8 361.1 461.4 404.92 461.4 404.92 449.85 347.26 449.85 347.26 548.32 406.06 548.32 406.06 536.61 361.1 536.61 361.1 502.36"/><polygon class="cls-1" points="175.47 461.4 203.3 461.4 203.3 548.32 217.14 548.32 217.14 461.4 244.83 461.4 244.83 449.85 175.47 449.85 175.47 461.4"/><polygon class="cls-1" points="320.74 490.52 268.37 490.52 268.37 449.85 254.53 449.85 254.53 548.32 268.37 548.32 268.37 502.36 320.74 502.36 320.74 548.32 334.59 548.32 334.59 449.85 320.74 449.85 320.74 490.52"/><polygon class="cls-1" points="460.7 449.85 446.86 449.85 446.86 548.32 483.35 548.32 488.03 536.47 460.7 536.47 460.7 449.85"/><path class="cls-2" d="M532.47,449.56l-39.86,98.75h14.56l9.89-25.68H559.3l10.13,25.68h15.41L544.6,449.56Zm-11.56,61.51,17.27-44.24,17.27,44.24Z"/><path class="cls-1" d="M636.78,496.37v-.29c8.27-2.57,15-11.13,15-21.55,0-10.27-4.57-16.12-10.56-20-6.14-4-14.13-4.7-23.4-4.7H591.25v98.46h32c10.85,0,18.69-1.56,24.83-6.42s10.56-11.27,10.56-21.55C658.61,507.36,650.05,499.08,636.78,496.37Zm-31.69-35.54H617.8c6.42,0,10,.72,13.55,2.71s6.57,5.57,6.57,12.56-3.28,10.56-6.57,13-7.85,3-14.7,3H605.09Zm32.12,72.79c-4.86,3.28-11,3.42-17.27,3.42H605.09V502.65h14.85c6.28,0,12.41.28,17.27,3.57s7.13,7.27,7.13,13.55S642.06,530.33,637.21,533.62Z"/><path class="cls-3" d="M310.18,599.62a2,2,0,0,1-2.22-1.77,5,5,0,0,1-3.69,1.77c-.95,0-3.09-.68-3.09-4.1s2.68-7.84,6.37-7.84c2.46,0,3.2,1.5,3.2,1.5l.36-1h1.42l-2.65,7.71a5.14,5.14,0,0,0-.33,1.48c0,.57.27.93,1,.93,2.05,0,4.65-2.82,4.65-6.65s-3.14-7-7.93-7a9,9,0,0,0-9,9.16c0,5.33,3.5,8.75,8.15,8.75a12.51,12.51,0,0,0,7.79-2.46l.58.93c-.28.27-3,2.76-8.37,2.76S297,600,297,593.88a10.33,10.33,0,0,1,10.33-10.39c5.33,0,9.24,3.56,9.24,8.2S313.08,599.62,310.18,599.62Zm.11-9.16s-.49-1.55-2.9-1.55c-2.9,0-4.76,3.88-4.76,6.48s1.37,3,2.19,3,3-.66,4.07-3.8Z"/><path class="cls-3" d="M349,604h-2.39l-3.22-7.85H330.87L327.6,604h-2.16l11.19-26.26h1.14Zm-6.41-9.75-5.46-13.4-5.47,13.4Z"/><path class="cls-3" d="M354.17,604h-2V577.84h2Z"/><path class="cls-3" d="M362.21,604h-2V577.84h2Z"/><path class="cls-3" d="M383.16,595.67h-14.3c.19,4.17,2.54,7,6.52,7a9,9,0,0,0,6.19-2.28l.95,1.4s-2.2,2.66-7.33,2.66-8.42-3.8-8.42-9.18,3.87-9.11,8.54-9.11,8,3.49,8,8.23A11.36,11.36,0,0,1,383.16,595.67Zm-1.9-1.7a6.11,6.11,0,0,0-6.07-6.15,6.26,6.26,0,0,0-6.26,6.15Z"/><path class="cls-3" d="M403.39,600.22c0,4-.49,6.07-1.44,7.59s-3,3.8-7.59,3.8A11.56,11.56,0,0,1,387,609l1.14-1.52a10.22,10.22,0,0,0,6.45,2.39,6.44,6.44,0,0,0,5.31-2.27,10.26,10.26,0,0,0,1.52-6v-1.29a7.22,7.22,0,0,1-6.64,3.76,9,9,0,0,1,0-17.91,7.39,7.39,0,0,1,6.64,3.64v-3.34h2Zm-8.54-12.36c-4.36,0-6.64,3.18-6.64,7.17s2.28,7.2,6.64,7.2,6.64-3.22,6.64-7.2S399.22,587.86,394.85,587.86Z"/><path class="cls-3" d="M410.26,581.79a1.64,1.64,0,1,1,1.64-1.64A1.62,1.62,0,0,1,410.26,581.79Zm1,22.23h-2V586.41h2Z"/><path class="cls-3" d="M421.65,604.4a7.11,7.11,0,0,1-6.41-3.42l1.4-1.14a6,6,0,0,0,5.08,2.78c2.2,0,4.14-1.07,4.14-3.34s-3.15-3.08-4.67-3.61-4.81-1.67-4.81-4.85,2.76-4.71,5.34-4.71a6.71,6.71,0,0,1,5.54,2.47l-1.21,1.21a5.4,5.4,0,0,0-4.4-2c-2,0-3.38,1-3.38,2.81s1.9,2.62,4.06,3.38,5.5,1.89,5.5,5.23S424.91,604.4,421.65,604.4Z"/><path class="cls-3" d="M462.29,600.42s-3.22,4.05-10.81,4.05-13.21-5.76-13.21-13.54,5.62-13.47,13.09-13.47c6.57,0,9.45,3.41,10.44,4.55l-1.41,1.52a11,11,0,0,0-9-4.21c-6.14,0-10.89,4.4-10.89,11.61s4.94,11.61,11.2,11.61,8.61-2.88,8.61-2.88v-7.1h-8V590.7h10.05Z"/><path class="cls-3" d="M476.15,588.31a5.19,5.19,0,0,0-1.9-.3,3.81,3.81,0,0,0-3,1.59,8.16,8.16,0,0,0-1.26,4.93V604h-2V586.41h2v3.31a4.64,4.64,0,0,1,4.48-3.61,6.21,6.21,0,0,1,1.9.27Z"/><path class="cls-3" d="M487,604.4a9.15,9.15,0,1,1,9-9.11A8.85,8.85,0,0,1,487,604.4Zm0-16.58c-4.25,0-6.9,3.3-6.9,7.4s2.65,7.4,6.9,7.4,6.94-3.34,6.94-7.4S491.33,587.82,487,587.82Z"/><path class="cls-3" d="M514,604h-2v-2.85a6.22,6.22,0,0,1-5.69,3.23c-2.46,0-3.83-.8-4.74-2s-1.33-3.07-1.33-5.53V586.41h2v10.78c0,2.65.49,5.5,4.36,5.5s5.42-3.41,5.42-6.83v-9.45h2Z"/><path class="cls-3" d="M528.49,604.4a7.54,7.54,0,0,1-6.64-3.68v10.51h-2V586.41h2v3.42a7.38,7.38,0,0,1,6.56-3.72c5.43,0,8.73,4,8.73,9.18S533.72,604.4,528.49,604.4Zm-.08-16.58c-4.29,0-6.64,3.34-6.64,7.47s2.35,7.33,6.64,7.33,6.64-3.23,6.64-7.33S532.66,587.82,528.41,587.82Z"/><polyline class="cls-4" points="398.99 315.96 352.55 315.96 418.96 188.39 441.61 234.59 398.99 315.96"/><polyline class="cls-5" points="451.14 253.06 433.27 287.42 418.89 315.95 446.79 315.95 451.18 315.95 451.18 253.16 451.14 253.06"/><polyline class="cls-5" points="451.18 253.16 451.18 315.95 481.53 315.95 451.18 253.16"/><polyline class="cls-6" points="427.03 330.46 450.87 330.46 416.78 395.95 405.15 372.23 427.03 330.46"/><polyline class="cls-7" points="412.48 330.46 399.45 330.46 397.39 330.46 397.39 330.46 397.39 359.8 397.42 359.85 405.76 343.8 412.48 330.46"/><polyline class="cls-8" points="451.18 253.16 451.18 315.95 481.53 315.95 451.18 253.16"/><polyline class="cls-9" points="397.39 330.46 383.21 330.46 397.39 359.8 397.39 359.8 397.39 330.46"/></svg>